<svg viewBox="0 0 24 24" xmlns="http://www.w3.org/2000/svg"><path d="m0 0h24v24h-24z" fill="none"/><path d="m12 2c2.717 0 3.056.01 4.122.06 1.065.05 1.79.217 2.428.465.66.254 1.216.598 1.772 1.153a4.908 4.908 0 0 1 1.153 1.772c.247.637.415 1.363.465 2.428.047 1.066.06 1.405.06 4.122s-.01 3.056-.06 4.122c-.05 1.065-.218 1.79-.465 2.428a4.883 4.883 0 0 1 -1.153 1.772 4.915 4.915 0 0 1 -1.772 1.153c-.637.247-1.363.415-2.428.465-1.066.047-1.405.06-4.122.06s-3.056-.01-4.122-.06c-1.065-.05-1.79-.218-2.428-.465a4.89 4.89 0 0 1 -1.772-1.153 4.904 4.904 0 0 1 -1.153-1.772c-.248-.637-.415-1.363-.465-2.428-.047-1.066-.06-1.405-.06-4.122s.01-3.056.06-4.122.217-1.79.465-2.428a4.88 4.88 0 0 1 1.153-1.772 4.897 4.897 0 0 1 1.772-1.153c.638-.248 1.362-.415 2.428-.465 1.066-.047 1.405-.06 4.122-.06zm0 5a5 5 0 1 0 0 10 5 5 0 0 0 0-10zm6.5-.25a1.25 1.25 0 0 0 -2.5 0 1.25 1.25 0 0 0 2.5 0zm-6.5 2.25a3 3 0 1 1 0 6 3 3 0 0 1 0-6z"/></svg>